<?xml version="1.0" encoding="UTF-8"?>
<!DOCTYPE svg PUBLIC "-//W3C//DTD SVG 1.1//EN" "http://www.w3.org/Graphics/SVG/1.1/DTD/svg11.dtd">
<!-- Creator: CorelDRAW -->
<svg xmlns="http://www.w3.org/2000/svg" xml:space="preserve" width="59.8846mm" height="43.401mm" style="shape-rendering:geometricPrecision; text-rendering:geometricPrecision; image-rendering:optimizeQuality; fill-rule:evenodd; clip-rule:evenodd"
viewBox="0 0 303.825 220.195"
 xmlns:xlink="http://www.w3.org/1999/xlink">
 <defs>
  <style type="text/css">
   <![CDATA[
    .fil3 {fill:#222223}
    .fil0 {fill:#E77817}
    .fil1 {fill:#F8C300}
    .fil2 {fill:#FFF500}
   ]]>
  </style>
 </defs>
 <g id="图层_x0020_1">
  <metadata id="CorelCorpID_0Corel-Layer"/>
  <path class="fil0" d="M139.48 89.8122c0,0 -19.0642,-36.7728 -46.3323,-58.8816 -29.2087,-23.6811 -71.6287,-39.6236 -90.1095,-25.7993 -9.56051,7.15364 3.40686,92.8898 39.0711,122.543 0,-0.00050735 21.9931,-2.19733 42.3531,-8.20893 0,0 -40.3491,25.018 -43.5545,45.8559 -3.20544,20.8379 61.9622,59.6066 83.7762,54.3971 21.8145,-5.20897 29.9063,-42.1481 27.6643,-66.5923 -2.2435,-24.4441 6.16025,-56.1008 -12.8684,-63.3143z"/>
  <path class="fil1" d="M139.48 89.8122c0,0 -23.6116,-38.341 -55.0176,-59.0211 -29.9245,-19.703 -63.1951,-25.5314 -73.511,-19.5208 -10.317,6.0116 1.3044,78.5419 36.9686,108.196 0.00050735,0 16.1824,6.0116 36.5424,0 0,0 -32.5349,25.2468 -35.7403,46.0847 -3.20544,20.8374 54.148,53.6959 75.962,48.487 21.8145,-5.20947 29.9063,-36.4668 27.6643,-60.911 -2.2435,-24.4441 6.16025,-56.1008 -12.8684,-63.3143z"/>
  <path class="fil0" d="M149.103 146.587c-12.2216,-0.801106 -27.0484,-22.4411 -40.6733,-49.4895 -13.6244,-27.0494 -6.16989,-34.34 -3.56211,-35.4633 2.6093,-1.1253 31.2122,21.8841 40.6286,37.79 9.41795,15.9059 3.60675,47.1628 3.60675,47.1628z"/>
  <path class="fil0" d="M47.1181 41.5977c1.77116,-8.26626 52.2201,5.6113 50.5539,25.2458 -1.66462,19.6345 -54.1607,-8.41491 -50.5539,-25.2458z"/>
  <path class="fil0" d="M50.3246 74.0569c-1.20191,-6.81321 17.2301,-10.0192 19.2342,0 2.00454,10.0176 -18.0328,6.81118 -19.2342,0z"/>
  <path class="fil0" d="M72.3274 100.504c-8.4347,-9.56812 17.394,-23.3011 25.3457,-16.3296 7.95069,6.9715 -10.1551,33.5607 -25.3457,16.3296z"/>
  <path class="fil0" d="M104.868 134.566c6.16634,5.74777 -13.2175,24.1722 -20.4061,12.0217 -7.18763,-12.15 9.23124,-22.4411 20.4061,-12.0217z"/>
  <path class="fil0" d="M110.935 154.602c-7.66962,-6.39008 -19.6086,14.427 -10.456,21.2382 9.15209,6.81169 20.4762,-12.8887 10.456,-21.2382z"/>
  <path class="fil0" d="M122.856 143.782c7.23837,-3.97915 29.2401,21.2473 16.6238,33.4643 -12.6173,12.2185 -28.0357,-27.1899 -16.6238,-33.4643z"/>
  <path class="fil0" d="M121.253 127.552c5.89288,5.6671 -5.20897,15.0277 -9.61784,10.218 -4.40786,-4.80867 4.40888,-15.2266 9.61784,-10.218z"/>
  <path class="fil0" d="M164.346 89.8122c0,0 19.0642,-36.7728 46.3323,-58.8816 29.2077,-23.6811 71.6293,-39.6236 90.1085,-25.7993 9.56102,7.15364 -3.40635,92.8898 -39.0711,122.543 0,-0.00050735 -21.9931,-2.19733 -42.3521,-8.20893 0,0 40.3486,25.018 43.5535,45.8559 3.20595,20.8379 -61.9622,59.6066 -83.7757,54.3971 -21.8145,-5.20897 -29.9063,-42.1481 -27.6638,-66.5923 2.2435,-24.4441 -6.16126,-56.1008 12.8684,-63.3143z"/>
  <path class="fil1" d="M164.346 89.8122c0,0 23.6111,-38.341 55.0176,-59.0211 29.9251,-19.703 63.194,-25.5314 73.51,-19.5208 10.317,6.0116 -1.3044,78.5419 -36.9686,108.196 0.00050735,0 -16.1824,6.0116 -36.5414,0 0,0 32.5344,25.2468 35.7408,46.0847 3.20493,20.8374 -54.1495,53.6959 -75.963,48.487 -21.8145,-5.20947 -29.9063,-36.4668 -27.6638,-60.911 2.2435,-24.4441 -6.16126,-56.1008 12.8684,-63.3143z"/>
  <path class="fil0" d="M154.722 146.587c12.2211,-0.801106 27.0484,-22.4411 40.6728,-49.4895 13.6259,-27.0494 6.1704,-34.34 3.56261,-35.4633 -2.60829,-1.1253 -31.2117,21.8841 -40.6286,37.79 -9.41744,15.9059 -3.60675,47.1628 -3.60675,47.1628z"/>
  <path class="fil0" d="M256.706 41.5977c-1.77116,-8.26626 -52.2195,5.6113 -50.5539,25.2458 1.66563,19.6345 54.1607,-8.41491 50.5539,-25.2458z"/>
  <path class="fil0" d="M253.5 74.0569c1.20293,-6.81321 -17.2301,-10.0192 -19.2342,0 -2.00403,10.0176 18.0322,6.81118 19.2342,0z"/>
  <path class="fil0" d="M231.498 100.504c8.43369,-9.56812 -17.3945,-23.3011 -25.3472,-16.3296 -7.94917,6.9715 10.1556,33.5607 25.3472,16.3296z"/>
  <path class="fil0" d="M198.957 134.566c-6.16583,5.74777 13.217,24.1722 20.4061,12.0217 7.18763,-12.15 -9.23124,-22.4411 -20.4061,-12.0217z"/>
  <path class="fil0" d="M192.891 154.602c7.66911,-6.39008 19.6076,14.427 10.455,21.2382 -9.15159,6.81169 -20.4762,-12.8887 -10.455,-21.2382z"/>
  <path class="fil0" d="M180.969 143.782c-7.23888,-3.97915 -29.2406,21.2473 -16.6238,33.4643 12.6168,12.2185 28.0352,-27.1899 16.6238,-33.4643z"/>
  <path class="fil0" d="M182.572 127.552c-5.89338,5.6671 5.20846,15.0277 9.61784,10.218 4.40837,-4.80867 -4.40938,-15.2266 -9.61784,-10.218z"/>
  <path class="fil0" d="M168.913 62.222l-2.51189 -2.62554c6.30028,-6.02732 6.10292,-20.3118 6.09886,-20.4559l3.63517 -0.0725511c0.0147132,0.649916 0.232874,16.0191 -7.22213,23.154z"/>
  <path class="fil0" d="M165.839 35.166c0,4.68335 3.79549,8.48087 8.47935,8.48087 4.68335,0 8.47884,-3.79752 8.47884,-8.48087 0,-4.68183 -3.79549,-8.47884 -8.47884,-8.47884 -4.68335,-0.00050735 -8.47935,3.79701 -8.47935,8.47884z"/>
  <path class="fil0" d="M141.87 62.222c-7.45653,-7.13487 -7.23735,-22.504 -7.22467,-23.1534l3.63415 0.0720438c-0.00253675,0.144088 -0.197867,14.4285 6.10241,20.4559l-2.51189 2.62554z"/>
  <path class="fil0" d="M178.581 71.8104c0,10.0349 -11.2373,18.1708 -25.1007,18.1708 -13.8618,0 -25.1001,-8.13536 -25.1001,-18.1708 0,-10.0354 11.2383,-18.1708 25.1001,-18.1708 13.8634,0 25.1001,8.13536 25.1007,18.1708z"/>
  <path class="fil2" d="M174.025 71.8104c0,7.99331 -8.95372,14.4767 -19.9977,14.4767 -11.045,0 -19.9972,-6.48343 -19.9972,-14.4767 0,-7.99331 8.9522,-14.4767 19.9972,-14.4767 11.0445,0 19.9977,6.48343 19.9977,14.4767z"/>
  <path class="fil0" d="M144.942 35.166c0,4.68335 -3.7965,8.48087 -8.47985,8.48087 -4.68234,0 -8.47884,-3.79752 -8.47884,-8.48087 0.00050735,-4.68183 3.7965,-8.47884 8.47884,-8.47884 4.68386,-0.00050735 8.47985,3.79701 8.47985,8.47884z"/>
  <path class="fil3" d="M148.577 65.299c0,2.42615 -1.22119,4.39213 -2.72599,4.39213 -1.50429,0 -2.72549,-1.96598 -2.72549,-4.39213 0,-2.42564 1.22119,-4.39163 2.72549,-4.39163 1.50531,0 2.72599,1.96598 2.72599,4.39163z"/>
  <path class="fil3" d="M164.326 65.299c0,2.42615 -1.22221,4.39213 -2.72701,4.39213 -1.50379,0 -2.7265,-1.96598 -2.7265,-4.39213 0,-2.42564 1.22221,-4.39163 2.7265,-4.39163 1.5048,0 2.7265,1.96598 2.72701,4.39163z"/>
  <path class="fil0" d="M141.612 84.832c0,0 -9.38801,23.016 -7.26881,45.7316 2.12123,22.712 17.3803,46.3343 19.1378,46.3343 1.75898,0 11.146,-24.5304 12.3585,-47.8502 1.21155,-23.3199 -6.96491,-42.7011 -6.96491,-42.7011l-17.2626 -1.51444z"/>
  <path class="fil1" d="M149.186 95.4032c7.40021,-1.58395 13.6234,16.151 12.4123,33.4527 -1.21257,17.3037 -2.50327,30.6835 -10.2256,30.7794 -11.0278,0.138507 -19.7476,-60.4772 -2.18668,-64.2321z"/>
 </g>
</svg>
