<?xml version="1.0" encoding="UTF-8"?>
<!DOCTYPE svg PUBLIC "-//W3C//DTD SVG 1.1//EN" "http://www.w3.org/Graphics/SVG/1.1/DTD/svg11.dtd">
<!-- Creator: CorelDRAW -->
<svg xmlns="http://www.w3.org/2000/svg" xml:space="preserve" width="48.1771mm" height="48.1771mm" style="shape-rendering:geometricPrecision; text-rendering:geometricPrecision; image-rendering:optimizeQuality; fill-rule:evenodd; clip-rule:evenodd"
viewBox="0 0 12.8126 12.8126"
 xmlns:xlink="http://www.w3.org/1999/xlink">
 <defs>
  <style type="text/css">
   <![CDATA[
    .fil0 {fill:#589CA9}
    .fil1 {fill:white}
    .fil2 {fill:#36808E}
   ]]>
  </style>
 </defs>
 <g id="图层_x0020_1">
  <metadata id="CorelCorpID_0Corel-Layer"/>
  <path class="fil0" d="M6.40626 0c3.53749,0 6.40629,2.86877 6.40629,6.40626 0,3.53752 -2.8688,6.40629 -6.40629,6.40629 -3.53749,0 -6.40626,-2.86877 -6.40626,-6.40629 0,-3.53749 2.86877,-6.40626 6.40626,-6.40626z"/>
  <path class="fil1" d="M6.40626 0.559765c3.22841,0 5.84653,2.61812 5.84653,5.8465 0,3.22841 -2.61812,5.84653 -5.84653,5.84653 -3.22838,0 -5.8465,-2.61812 -5.8465,-5.84653 0,-3.22838 2.61812,-5.8465 5.8465,-5.8465z"/>
  <g id="_235743112">
   <path id="_235743616" class="fil0" d="M6.40626 0.761912c0.128798,0 0.233236,0.355119 0.233236,0.793001 0,0.437882 -0.104437,0.793027 -0.233236,0.793027 -0.128798,0 -0.233236,-0.355146 -0.233236,-0.793027 0,-0.437882 0.104437,-0.793001 0.233236,-0.793001z"/>
   <path id="_235743256" class="fil0" d="M6.40626 10.4646c0.128798,0 0.233236,0.355146 0.233236,0.793027 0,0.437882 -0.104437,0.793001 -0.233236,0.793001 -0.128798,0 -0.233236,-0.355119 -0.233236,-0.793001 0,-0.437882 0.104437,-0.793027 0.233236,-0.793027z"/>
  </g>
  <g id="_235743160">
   <path id="_235743568" class="fil0" d="M12.0506 6.40626c0,0.128798 -0.355119,0.233262 -0.793001,0.233262 -0.437908,0 -0.793027,-0.104464 -0.793027,-0.233262 0,-0.128772 0.355119,-0.233236 0.793027,-0.233236 0.437882,0 0.793001,0.104464 0.793001,0.233236z"/>
   <path id="_235743208" class="fil0" d="M2.34791 6.40626c0,0.128798 -0.355119,0.233262 -0.793001,0.233262 -0.437882,0 -0.793001,-0.104464 -0.793001,-0.233262 0,-0.128772 0.355119,-0.233236 0.793001,-0.233236 0.437882,0 0.793001,0.104464 0.793001,0.233236z"/>
  </g>
  <g id="_235743544">
   <path id="_235743136" class="fil0" d="M9.22847 1.51811c0.111538,0.0644124 0.0244139,0.424159 -0.194514,0.803399 -0.218954,0.379214 -0.486976,0.63455 -0.598514,0.570137 -0.111538,-0.0643858 -0.0244139,-0.424159 0.194514,-0.803373 0.218954,-0.37924 0.486976,-0.63455 0.598514,-0.570164z"/>
   <path id="_235743352" class="fil0" d="M4.37709 9.92091c0.111565,0.0643858 0.0244405,0.424159 -0.194514,0.803373 -0.218928,0.37924 -0.486949,0.63455 -0.598487,0.570164 -0.111538,-0.0644124 -0.0244405,-0.424159 0.194514,-0.803399 0.218954,-0.379214 0.486949,-0.63455 0.598487,-0.570137z"/>
  </g>
  <g id="_235743280">
   <path id="_235743328" class="fil0" d="M11.2945 9.22847c-0.0644124,0.111538 -0.424159,0.0244139 -0.803399,-0.194514 -0.379214,-0.218954 -0.63455,-0.486949 -0.570137,-0.598514 0.0643858,-0.111538 0.424159,-0.0244139 0.803373,0.19454 0.37924,0.218928 0.63455,0.486949 0.570164,0.598487z"/>
   <path id="_235743472" class="fil0" d="M2.89164 4.37712c-0.0644124,0.111538 -0.424159,0.0244139 -0.803399,-0.19454 -0.379214,-0.218928 -0.63455,-0.486949 -0.570137,-0.598487 0.0643858,-0.111538 0.424159,-0.0244139 0.803399,0.194514 0.379214,0.218954 0.634523,0.486949 0.570137,0.598514z"/>
  </g>
  <g id="_235742944">
   <path id="_235742848" class="fil0" d="M11.2945 3.58409c0.0643858,0.111538 -0.190923,0.37956 -0.570164,0.598487 -0.379214,0.218954 -0.738987,0.306078 -0.803373,0.19454 -0.0644124,-0.111565 0.190923,-0.37956 0.570137,-0.598514 0.37924,-0.218928 0.738987,-0.306052 0.803399,-0.194514z"/>
   <path id="_235742272" class="fil0" d="M2.89164 8.43544c0.0643858,0.111565 -0.190923,0.37956 -0.570137,0.598514 -0.37924,0.218928 -0.739014,0.306052 -0.803399,0.194514 -0.0644124,-0.111538 0.190923,-0.37956 0.570137,-0.598487 0.37924,-0.218954 0.738987,-0.306078 0.803399,-0.19454z"/>
  </g>
  <g id="_235742464">
   <path id="_235742344" class="fil0" d="M9.22847 11.2945c-0.111538,0.0643858 -0.37956,-0.190923 -0.598514,-0.570164 -0.218928,-0.379214 -0.306052,-0.738987 -0.194514,-0.803373 0.111538,-0.0644124 0.37956,0.190923 0.598514,0.570137 0.218928,0.37924 0.306052,0.738987 0.194514,0.803399z"/>
   <path id="_235742248" class="fil0" d="M4.37709 2.89164c-0.111538,0.0644124 -0.379533,-0.190923 -0.598487,-0.570137 -0.218954,-0.37924 -0.306052,-0.738987 -0.194514,-0.803399 0.111538,-0.0643858 0.37956,0.190923 0.598487,0.570164 0.218954,0.379214 0.306078,0.738987 0.194514,0.803373z"/>
  </g>
  <path class="fil2" d="M6.40626 5.87762c0.291957,0 0.528676,0.236719 0.528676,0.528649 0,0.291957 -0.236719,0.528676 -0.528676,0.528676 -0.29193,0 -0.528676,-0.236719 -0.528676,-0.528676 0,-0.29193 0.236746,-0.528649 0.528676,-0.528649z"/>
  <path class="fil2" d="M6.83125 3.90647l-2.65947e-005 0c0.167866,0.0328179 0.278367,0.196987 0.245549,0.364853l-0.344135 1.76025c-0.0328179,0.167866 -0.197014,0.27834 -0.364879,0.245522l2.65947e-005 0c-0.167866,-0.0328179 -0.278367,-0.197014 -0.245549,-0.364879l0.344135 -1.76022c0.0328179,-0.167866 0.197014,-0.27834 0.364879,-0.245522z"/>
  <path class="fil2" d="M6.44246 6.40626l0 2.65947e-005c0,-0.105714 0.086486,-0.1922 0.1922,-0.1922l0.715265 0 0.139995 0 0.253155 0 0.208077 0 0.647182 0 0.0680824 0 0.393176 0 0.254006 0 0.461259 0c0.105714,0 0.1922,0.086486 0.1922,0.1922l0 -2.65947e-005c0,0.105714 -0.086486,0.1922 -0.1922,0.1922l-0.461259 0 -0.254006 0 -0.393176 0 -0.0680824 0 -0.647182 0 -0.208077 0 -0.253155 0 -0.139995 0 -0.715265 0c-0.105714,0 -0.1922,-0.086486 -0.1922,-0.1922z"/>
 </g>
</svg>
