<?xml version="1.0" encoding="UTF-8"?>
<!DOCTYPE svg PUBLIC "-//W3C//DTD SVG 1.1//EN" "http://www.w3.org/Graphics/SVG/1.1/DTD/svg11.dtd">
<!-- Creator: CorelDRAW -->
<svg xmlns="http://www.w3.org/2000/svg" xml:space="preserve" width="70.4275mm" height="45.9549mm" style="shape-rendering:geometricPrecision; text-rendering:geometricPrecision; image-rendering:optimizeQuality; fill-rule:evenodd; clip-rule:evenodd"
viewBox="0 0 15.1197 9.86582"
 xmlns:xlink="http://www.w3.org/1999/xlink">
 <defs>
  <style type="text/css">
   <![CDATA[
    .fil4 {fill:#222223;fill-rule:nonzero}
    .fil3 {fill:#892726;fill-rule:nonzero}
    .fil1 {fill:#A66E29;fill-rule:nonzero}
    .fil0 {fill:#B0752E;fill-rule:nonzero}
    .fil2 {fill:#BF8134;fill-rule:nonzero}
   ]]>
  </style>
 </defs>
 <g id="图层_x0020_1">
  <metadata id="CorelCorpID_0Corel-Layer"/>
  <path class="fil0" d="M8.99615 6.70536c0,0 0.68141,1.09719 1.38092,1.17012 0.699594,0.0729714 2.07212,-0.848885 2.25499,-0.953652 0.182869,-0.104809 0.516382,-0.0867112 0.516382,-0.0867112 0,0 0.649035,0.369666 1.09114,0.190984 0.442208,-0.178596 0.4608,-0.461036 0.0569344,-0.798134 -0.403973,-0.337141 -0.953523,-0.497146 -1.28491,-0.204487 -0.331473,0.292573 -4.01544,0.681882 -4.01544,0.681882z"/>
  <path class="fil0" d="M4.43822 5.60798c0,0 -0.812131,-0.286068 -1.54028,0.013976 -0.728125,0.300044 -0.654939,1.40494 -0.362345,1.73635 0.292658,0.331452 1.05108,0.448241 1.21061,-0.524346 0,0 1.08459,0.640362 1.55468,0.356398 0.470138,-0.284028 -0.176943,-1.46181 -0.862668,-1.58238z"/>
  <path class="fil1" d="M2.08386 0.702427c0,0 -0.494011,0.119579 -0.675978,1.02795 -0.181988,0.908246 -0.260413,1.62776 -0.11885,1.96572 0.141563,0.337978 0.649572,0.707537 0.935038,0.694248 0.285509,-0.0133963 1.05296,-0.461551 1.05296,-0.461551 0,0 1.17954,-0.94807 1.0356,-2.07368 -0.143903,-1.12564 -2.22877,-1.15269 -2.22877,-1.15269z"/>
  <path class="fil2" d="M4.23417 0.00523831c-1.18723,-0.0674755 -2.0175,0.519237 -2.18942,0.742209 -0.171941,0.222907 -0.142422,0.536455 -0.142422,0.536455 0,0 -1.53925,0.487914 -1.835,0.823231 -0.295836,0.335295 0.462946,1.22946 0.733192,1.41529 0.270074,0.185896 1.95507,0.494205 2.35211,0.556377 0.396974,0.0621513 0.792917,0.411637 0.860135,0.936928 0.0672608,0.525355 0.393775,1.96593 1.25389,2.38195 0,0 0.461272,1.1398 0.498155,1.35498 0,0 -0.742552,-0.0348219 -0.846932,0.428983 -0.104315,0.463741 0.519559,0.591757 0.937379,0.646223 0.417798,0.0545514 0.793153,-0.0846073 0.873145,-0.244633 0.0800989,-0.160112 -0.0580079,-1.8345 0.0525119,-2.17991 0,0 0.979242,0.110949 1.53186,-0.118248 0.552706,-0.22909 1.44457,-0.462174 2.34996,-0.431345 0,0 0.512904,0.633685 0.936327,0.949873 0.423616,0.316188 0.398777,1.11778 0.398777,1.11778 0,0 -0.704553,0.0948692 -0.67001,0.536347 0.0344999,0.441456 1.58966,0.459705 1.69258,0.355346 0.102813,-0.104272 0.000300559,-0.56767 -0.104659,-0.950775 -0.105174,-0.383041 0.0112924,-1.10473 0.154766,-1.43266 0.143474,-0.328081 0.359039,-1.21061 -0.0163375,-2.06216 -0.375376,-0.851462 -0.970719,-1.58255 -1.75846,-1.73073 -0.787657,-0.148175 -2.13025,0.165544 -2.79234,0.0399743 -0.66211,-0.125591 -2.0871,-0.280271 -2.33845,-0.891135 -0.251332,-0.610821 0.101739,-1.20292 -0.399507,-1.91402 -0.501117,-0.711187 -1.09356,-0.841522 -1.53124,-0.866339z"/>
  <path class="fil1" d="M4.50289 1.40002c0,0 0.257686,0.516145 0.261379,0.643711 0.00375699,0.127609 -0.681023,1.64021 -0.375827,2.22738 0.305239,0.58712 1.21769,0.73536 1.49464,0.696116 0.276922,-0.0392659 1.47044,-1.2073 1.55297,-1.73047 0.0825034,-0.523144 -1.10453,-1.82405 -1.59049,-2.24022 -0.486004,-0.41621 -1.48491,-0.335123 -1.34266,0.403479z"/>
  <path class="fil3" d="M1.83111 3.42809c0,0 1.0465,-0.437356 1.4143,-0.760714 0,0 0.211744,0.628125 -0.0945902,0.993454 -0.306377,0.365329 -1.31971,-0.23274 -1.31971,-0.23274z"/>
  <path class="fil4" d="M0.0252899 2.17315c0.0387292,-0.222736 1.10503,0.0184844 1.25357,0.255604 0.148455,0.237141 -0.453951,0.4494 -0.754381,0.352663 -0.300451,-0.0966726 -0.533127,-0.413483 -0.499185,-0.608267z"/>
  <path class="fil4" d="M3.47113 1.65784c-0.0328253,0.123616 -0.127201,0.20584 -0.210885,0.18362 -0.0836198,-0.0221984 -0.124775,-0.140425 -0.091971,-0.264041 0.0328253,-0.123616 0.127201,-0.20584 0.210842,-0.183641 0.0836627,0.0222199 0.124839,0.140447 0.0920139,0.264062z"/>
  <path class="fil4" d="M2.37815 1.36765c-0.0328253,0.123616 -0.127201,0.20584 -0.210885,0.18362 -0.0836198,-0.0221984 -0.124796,-0.140425 -0.091971,-0.264041 0.0328253,-0.123616 0.127201,-0.20584 0.210842,-0.183641 0.0836627,0.0222199 0.124839,0.140447 0.0920139,0.264062z"/>
  <path class="fil2" d="M11.1462 3.61469c0,0 1.23712,-0.216166 2.02298,-0.0964794 0.785811,0.119622 2.00071,0.635575 1.94936,0.834351 -0.0756979,0.293002 -1.64854,-0.145385 -2.02547,-0.220975 -0.376772,-0.0755261 -1.08231,0.0332332 -1.08231,0.0332332l-0.864557 -0.55013z"/>
 </g>
</svg>
