<?xml version="1.0" encoding="UTF-8"?>
<!DOCTYPE svg PUBLIC "-//W3C//DTD SVG 1.1//EN" "http://www.w3.org/Graphics/SVG/1.1/DTD/svg11.dtd">
<!-- Creator: CorelDRAW -->
<svg xmlns="http://www.w3.org/2000/svg" xml:space="preserve" width="84.1478mm" height="56.5709mm" style="shape-rendering:geometricPrecision; text-rendering:geometricPrecision; image-rendering:optimizeQuality; fill-rule:evenodd; clip-rule:evenodd"
viewBox="0 0 35.6552 23.9703"
 xmlns:xlink="http://www.w3.org/1999/xlink">
 <defs>
  <style type="text/css">
   <![CDATA[
    .fil5 {fill:#2E211D}
    .fil4 {fill:#4A7F8B}
    .fil0 {fill:#589CA9}
    .fil1 {fill:#7BB5C2}
    .fil3 {fill:#ADD1D7}
    .fil2 {fill:#CDE3E5}
    .fil6 {fill:#F9E6E0}
   ]]>
  </style>
 </defs>
 <g id="图层_x0020_1">
  <metadata id="CorelCorpID_0Corel-Layer"/>
  <path class="fil0" d="M24.9521 5.31799c0,0 -1.5409,-3.78675 -6.01895,-5.14194 -4.47801,-1.35514 0.219911,5.52761 1.80221,5.91167 1.58226,0.384145 4.24661,-0.20542 4.21674,-0.769731z"/>
  <path class="fil1" d="M28.3027 13.5739c0,0 -0.225589,3.46036 -3.52705,5.60116 -3.30163,2.14115 -1.33548,-4.58453 -0.142794,-5.26337 1.19248,-0.678546 3.53942,-0.807569 3.66985,-0.33779z"/>
  <path class="fil0" d="M34.0334 15.9045c0,0 2.17898,-3.60993 0.243682,-6.56509 -1.9353,-2.95524 -15.4094,-11.3115 -27.0135,7.00779 0,0 -0.44622,0.506516 -0.0385162,0.829349 0.40745,0.322579 0.806002,0.311943 1.79348,-0.151184 0.987693,-0.462957 11.7772,-6.71114 21.6323,1.98115 4.23721e-005,0 2.24534,2.04462 3.77861,1.24324 1.53421,-0.801129 1.86645,-2.52398 -0.396009,-4.34526z"/>
  <path class="fil2" d="M9.01851 17.0253c0.987481,-0.462661 11.7772,-6.7111 21.6326,1.98145 0,0 2.24504,2.04437 3.77866,1.2432 0.224233,-0.117244 0.42228,-0.253893 0.590751,-0.407874 -0.037584,0.024025 -1.02926,0.644352 -2.34025,-0.858882 -1.33663,-1.53239 -10.2505,-14.341 -23.6618,-1.95789z"/>
  <path class="fil3" d="M23.533 15.0426c2.32737,0.650666 4.74919,1.87505 7.11813,3.96412 0,0 1.68158,1.53082 3.12841,1.42345 -0.0654225,-0.00266944 -1.08638,-0.0697021 -2.55343,-1.63281 -1.517,-1.61582 -4.46763,-4.20339 -6.92055,-4.57762 0,0 -0.317452,-0.00703376 -0.41245,0.253766 -0.0202962,0.0550837 -0.146819,0.268554 -0.36012,0.569099z"/>
  <path class="fil3" d="M11.4855 15.8957c2.20915,-0.865831 5.66286,-1.82454 9.571,-1.34794l0.778841 -0.774816 -1.09756 0.613209 0.353298 -0.93477c0,0 -4.87516,-0.562235 -9.60452,2.44372l-0.0010593 0.000593209z"/>
  <path class="fil2" d="M26.3978 14.1868c0,0 -2.18958,3.48311 -6.82474,4.14106 -4.6355,0.657276 1.20468,-5.38956 2.82579,-5.52879 1.62082,-0.139531 4.12899,0.838713 3.99895,1.38773z"/>
  <path class="fil3" d="M25.9734 14.7531c-0.839814,1.01481 -2.93732,3.08303 -6.4003,3.57476 -0.441348,0.0624141 -0.787188,0.0638123 -1.05112,0.0158472 2.81605,0.175929 5.27575,-3.61002 5.37087,-3.87035 0.0952948,-0.260546 0.412492,-0.253258 0.412492,-0.253258 0.538888,0.0821594 1.10176,0.270927 1.66806,0.532998z"/>
  <path class="fil0" d="M8.79653 17.1048c0,0 0.213428,0.939389 1.16218,1.95738 0.948584,1.01782 1.75289,3.28532 -0.100676,4.87071 0,0 -0.135802,0.144277 -0.30974,-0.134319 -0.174234,-0.278808 -0.200928,-0.781553 -1.44374,-2.00242 -1.24226,-1.22091 -1.82687,-2.24729 -1.09587,-3.53548 0.7313,-1.28849 1.78785,-1.15587 1.78785,-1.15587z"/>
  <path class="fil0" d="M8.53136 16.4852c0,0 -1.19358,0.0963541 -2.72338,-0.518168 -1.5295,-0.614776 -4.50504,-0.672191 -5.78824,1.7084 0,0 -0.127201,0.183895 0.263131,0.266351 0.390332,0.0825408 0.999896,-0.0568209 2.86952,0.78507 1.86937,0.842187 3.28892,1.08905 4.58729,-0.0686851 1.29858,-1.15849 0.79168,-2.17297 0.79168,-2.17297z"/>
  <path class="fil4" d="M33.5188 11.5322c-0.0447025,0.120421 -0.115379,0.169785 -0.218809,0.168895 -0.103642,-0.000635581 -1.04434,-0.771256 -2.03949,-0.726512 4.23721e-005,0 -0.0906339,-0.0123303 -0.106947,-0.0729223 -0.0155082,-0.0577108 0.738164,-0.804307 2.14568,-0.144743 0.295799,0.138218 0.323087,0.500075 0.219572,0.775282z"/>
  <path class="fil5" d="M31.7213 12.4038c-0.374654,-0.213809 -0.986337,0.0657191 -1.36586,0.624564 -0.38012,0.558379 -0.383976,1.18434 -0.00877102,1.39815 0.374696,0.213767 0.986549,-0.0660581 1.36637,-0.624649 0.379611,-0.558294 0.383171,-1.18451 0.00826255,-1.39807z"/>
  <path class="fil6" d="M31.5947 12.9598c-0.19292,-0.110167 -0.446983,-0.0558464 -0.567065,0.120591 -0.120125,0.176861 -0.0612276,0.409526 0.131904,0.519439 0.193217,0.109956 0.446814,0.0560583 0.567404,-0.120803 0.12004,-0.176861 0.060931,-0.409272 -0.132243,-0.519227z"/>
 </g>
</svg>
