<?xml version="1.0" encoding="UTF-8"?>
<!DOCTYPE svg PUBLIC "-//W3C//DTD SVG 1.1//EN" "http://www.w3.org/Graphics/SVG/1.1/DTD/svg11.dtd">
<!-- Creator: CorelDRAW -->
<svg xmlns="http://www.w3.org/2000/svg" xml:space="preserve" width="46.4239mm" height="87.7828mm" style="shape-rendering:geometricPrecision; text-rendering:geometricPrecision; image-rendering:optimizeQuality; fill-rule:evenodd; clip-rule:evenodd"
viewBox="0 0 222.5 420.724"
 xmlns:xlink="http://www.w3.org/1999/xlink">
 <defs>
  <style type="text/css">
   <![CDATA[
    .fil7 {fill:#252226}
    .fil2 {fill:#28166F}
    .fil5 {fill:#386CAC}
    .fil1 {fill:#608EBD}
    .fil6 {fill:#824F44}
    .fil4 {fill:#E4A945}
    .fil3 {fill:#EDB58C}
    .fil0 {fill:#F4B9A6}
   ]]>
  </style>
 </defs>
 <g id="图层_x0020_1">
  <metadata id="CorelCorpID_0Corel-Layer"/>
  <path class="fil0" d="M 47.4563,386.857 L 47.3868,386.906 L 38.4985,393.057 L 33.6104,386.857 L 41.7974,377.692 L 45.8392,384.857 Z" />
  <path class="fil1" d="M118.328 281.829c2.23631,4.84455 4.9289,9.64549 11.2084,20.8731 -5.09425,-9.12786 -9.15231,-16.6252 -11.2084,-20.8731z"/>
  <path class="fil1" d="M114.403 272.404c0.898168,2.29431 1.65399,4.18458 2.37674,5.90471 -0.966226,-2.37243 -1.74841,-4.31543 -2.37674,-5.90471z"/>
  <path class="fil2" d="M179.447 389.326c-6.0346,2.7894 -11.8118,5.49301 -17.6408,8.20334 0,0 -26.7126,-31.1042 -47.9868,-56.5237 -14.8337,-17.7252 -25.1094,-31.5341 -32.3633,-42.1027 -0.195546,-0.286129 -0.385819,-0.563153 -0.579448,-0.846406l-0.0340288 -0.0531999c-10.2925,-15.0901 -14.2964,-23.384 -16.6708,-26.9058 0.0148576,0.00335495 0.0349874,0.00718918 0.0488864,0.0105441 0.104003,0.029236 0.218551,0.0527207 0.343643,0.0776432 0.108317,0.0186919 0.231971,0.0388216 0.357063,0.0541585 0.0282774,0.00335495 0.0541585,0.00718918 0.0824359,0.0105441 6.00488,0.767805 28.7361,-2.09157 47.1907,-4.52008 0.000479279,0.000958558 0,0.000958558 0.00143784,0.00239639 8.42045,-1.14739 15.8742,-2.16251 20.5486,-2.73524 0.000479279,-0.000479279 -1.01367,27.0769 -2.0724,37.7058 -0.0431351,0.702623 -0.175895,1.49104 -0.394926,2.32738 0,0 0,0.000958558 0.000958558,0.000958558 18.3918,32.891 49.1683,85.2944 49.1683,85.2944z"/>
  <path class="fil2" d="M111.762 338.538l0.000958558 0.00143784 0.106879 0.128447c0.640796,0.772597 1.28974,1.55143 1.94827,2.3384 -0.16631,0.216634 -12.7498,16.7484 -21.2483,23.4502 -8.55561,6.74633 -44.3199,23.593 -44.3199,23.593 -2.93942,-3.89462 -5.87979,-7.78972 -8.82017,-11.6848 0,0 40.1746,-39.1173 41.2333,-42.5125 0.701664,-2.3269 0.443333,-23.1266 0.180688,-35.8457l0.032591 0.0508035c0.193629,0.283254 0.383902,0.560277 0.578969,0.846406 6.91455,10.0735 16.573,23.0893 30.3067,39.6344z"/>
  <path class="fil3" d="M119.897 161.45c0.0503243,-0.0503243 0.096335,-0.102566 0.153848,-0.149535 3.15653,-2.60153 16.4838,-1.94971 16.4838,-1.94971 0.000479279,0 7.76144,-0.794644 8.9975,2.07144 1.18957,2.86609 1.63146,4.4108 1.89555,7.01233 0.26552,2.60153 0.883311,9.43652 -0.264083,12.965 -1.19053,3.48292 0.750071,6.08492 0.750071,6.08492l15.3911 -3.26293c0,0 7.18774,29.0606 8.11323,35.1465 0.883311,6.08636 0.485509,13.6273 -4.80669,16.2332 -5.33581,2.55551 -20.2423,3.61712 -22.4485,0 -1.087,-1.8088 -4.23347,-12.849 -7.13742,-23.5532 -0.00239639,-0.0143784 -0.00239639,-0.0282774 -0.00479279,-0.0416973 -2.95188,-10.9376 -5.6876,-21.5201 -5.6876,-21.5201 0,0 -4.01204,-0.794644 -8.02552,-2.0748 -4.013,-1.32137 -2.99933,-2.07144 -2.20468,-5.99578 0.793686,-3.88216 -1.67556,-2.42611 -1.80832,-5.55772 -0.178292,-3.13209 1.27632,-2.20612 2.20468,-5.8218 0.880914,-3.66073 -2.99933,-5.20305 -2.07288,-8.82017 0.0555963,-0.228616 0.169665,-0.440936 0.335974,-0.635524 0.0388216,-0.0455315 0.0896251,-0.0867495 0.134198,-0.130364z"/>
  <path class="fil3" d="M50.6694 112.293c-1.33958,3.45081 -3.23897,8.44777 -5.15368,13.8454l-2.69307 20.47c0,0 -22.7121,-25.8897 -24.6512,-28.4917 -1.9406,-2.60153 -5.73265,-60.5482 -8.07058,-65.3094 -2.29143,-4.80669 -5.73217,-10.1444 -7.23088,-12.7896 -1.31179,-2.27657 -3.58213,-20.6957 -2.65281,-25.975 0.581365,-3.30079 3.43164,-0.290443 4.19609,-0.748633 0.679138,-0.298591 0.874204,-2.18359 0.86366,-3.70339 -0.0115027,-1.73068 0.556443,-5.10767 3.01754,-4.76451 1.89651,0.308656 1.54328,2.16107 2.69067,2.16107 1.19101,-0.000479279 0.0881873,-3.08703 1.32281,-5.24666 1.23558,-2.20612 4.27756,-2.33744 4.93753,-0.266 0.707415,2.11793 1.06112,4.10119 1.89842,2.42563 0.881873,-1.63146 3.04294,-2.82151 4.80669,-1.23414 1.72061,1.54424 1.72013,30.5171 2.91114,30.0316 1.14596,-0.48503 4.27852,-1.27824 5.99722,-3.21979 1.76423,-1.94012 8.68837,-3.48388 6.65958,2.82247 -1.98421,6.30443 -11.2894,13.8023 -11.2894,16.3156 0.000479279,2.55887 11.2453,52.5227 11.242,52.5227l11.3762 10.6731 -0.177812 0.481196z"/>
  <path class="fil0" d="M 180.679,400.042 L 180.676,400.035 L 181.121,399.793 L 176.309,390.779 L 174.687,391.533 L 174.409,391.661 L 174.269,391.727 L 174.132,391.79 L 174.129,391.792 L 173.989,391.856 L 173.855,391.919 L 173.849,391.922 L 173.578,392.048 L 173.57,392.051 L 173.43,392.117 L 173.302,392.176 L 173.29,392.181 L 173.151,392.246 L 173.026,392.305 L 173.011,392.311 L 172.872,392.376 L 172.75,392.433 L 172.733,392.441 L 172.593,392.506 L 172.474,392.561 L 172.454,392.571 L 172.315,392.635 L 172.199,392.689 L 172.175,392.7 L 172.036,392.765 L 171.924,392.818 L 171.897,392.83 L 171.758,392.895 L 171.648,392.946 L 171.619,392.959 L 171.48,393.024 L 171.373,393.074 L 171.341,393.089 L 171.202,393.153 L 171.098,393.202 L 171.063,393.218 L 170.925,393.283 L 170.824,393.33 L 170.786,393.347 L 170.647,393.412 L 170.549,393.458 L 170.508,393.476 L 170.37,393.541 L 170.275,393.585 L 170.231,393.605 L 170.093,393.67 L 170.001,393.713 L 169.954,393.735 L 169.816,393.799 L 169.727,393.841 L 169.677,393.864 L 169.539,393.928 L 169.453,393.969 L 169.262,394.057 L 169.179,394.096 L 169.124,394.121 L 168.985,394.186 L 168.905,394.224 L 168.847,394.25 L 168.709,394.315 L 168.631,394.351 L 168.57,394.379 L 168.432,394.444 L 168.358,394.479 L 168.294,394.508 L 168.156,394.572 L 168.085,394.606 L 168.018,394.637 L 167.88,394.701 L 167.811,394.733 L 167.742,394.766 L 167.603,394.83 L 167.538,394.861 L 167.465,394.894 L 167.327,394.959 L 167.265,394.988 L 167.189,395.023 L 167.052,395.087 L 166.992,395.115 L 166.914,395.151 L 166.776,395.216 L 166.719,395.243 L 166.638,395.28 L 166.5,395.345 L 166.446,395.37 L 166.361,395.409 L 166.224,395.473 L 166.173,395.497 L 166.086,395.537 L 165.948,395.601 L 165.9,395.624 L 165.81,395.666 L 165.672,395.73 L 165.627,395.751 L 165.534,395.794 L 165.535,395.795 L 172.522,404.323 L 172.649,404.255 L 180.68,400.045 Z" />
  <path class="fil4" d="M65.2442 174.718c0.0153369,0.0191712 0.0258811,0.0364252 0.0421765,0.0551171 0.183084,0.228616 0.357063,0.451001 0.508035,0.661884 0.0230054,0.0301946 0.0383423,0.0551171 0.0589513,0.0862702 0.139949,0.196025 0.270313,0.388216 0.381027,0.567945 0.0191712,0.0301946 0.0297153,0.0555963 0.0460108,0.0848323 0.102566,0.17302 0.196984,0.341726 0.267438,0.496054 0.00623062,0.00958558 0.00623062,0.0167748 0.0110234,0.0263603 0.0742882,0.167748 0.134198,0.32591 0.168706,0.469693 0.0316324,0.138032 0.0517621,0.310093 0.0656612,0.51187 0.00383423,0.0527207 0.00239639,0.124612 0.00479279,0.184043 0.00718918,0.153848 0.0143784,0.310093 0.0129405,0.497491 -0.000958558,0.178292 -0.011982,0.383423 -0.0210883,0.588554 -0.00335495,0.0867495 -0.00479279,0.160558 -0.0105441,0.251621 -0.0129405,0.264083 -0.0354666,0.556443 -0.0603891,0.857909 -0.00335495,0.0493657 -0.00575135,0.0934594 -0.0105441,0.142825 -2.69834,31.2346 -11.9374,57.6903 -12.0572,90.1701 2.08247,-0.154807 8.32507,0.63121 10.2662,0.869891 0.0297153,0.00383423 0.0546378,0.00718918 0.0838738,0.0105441 3.46758,0.429434 12.4751,-0.328785 23.0188,-1.52075 19.4597,-2.19653 44.1516,-5.85583 48.9133,-6.21816 7.58411,-0.572738 8.90788,-0.747196 8.1578,-1.54088 -0.705019,-0.661405 -7.22129,-31.8356 -8.0677,-49.9226 -0.000958558,-0.0143784 -0.00143784,-0.0282774 -0.00239639,-0.041218 -2.95332,-10.9381 -5.68856,-21.5215 -5.68856,-21.5215 0,0 -4.01348,-0.793686 -8.026,-2.07384 -4.01252,-1.32137 -2.99885,-2.07144 -2.2042,-5.99626 0.793206,-3.88168 -1.67652,-2.42563 -1.8088,-5.55724 -0.177812,-3.13209 1.27776,-2.20612 2.20468,-5.8218 0.880914,-3.66073 -2.99933,-5.20305 -2.07384,-8.82017 0.0565549,-0.228137 0.171103,-0.440936 0.337412,-0.635524 0.0373837,-0.0440936 0.0881873,-0.0867495 0.133719,-0.128926 0.0512828,-0.0508035 0.0972936,-0.102566 0.154807,-0.150014 3.15318,-2.60248 16.4848,-1.95066 16.4848,-1.95066 0.000479279,0 7.76144,-0.794644 8.99606,2.07192 1.19101,2.86561 1.6329,4.41032 1.89699,7.01185 0.264083,2.60153 0.883311,9.43652 -0.264083,12.965 -1.19053,3.48292 0.750071,6.08492 0.750071,6.08492l15.346 -3.26293c1.58641,-0.750071 2.99789,-1.58785 4.18842,-2.55743 0.000479279,0 0,-3.13065 -1.19053,-4.49707 -1.14596,-1.3669 -19.0504,-28.2242 -21.9615,-33.9603 -2.88957,-5.64974 -25.7291,-9.90478 -26.0474,-9.96373 -0.00239639,0 -0.0148576,-0.00143784 -0.0148576,-0.00143784 0.0627855,0.16631 0.123175,0.364731 0.178771,0.585679 0.00431351,0.020609 0.0105441,0.0421765 0.0162955,0.0627855 0.0460108,0.19267 0.0857909,0.415055 0.123654,0.651819 0.0143784,0.0881873 0.0273189,0.182605 0.0388216,0.277502 0.0321117,0.241556 0.0603891,0.497491 0.0814774,0.785059 0.00479279,0.0738089 0.00814774,0.153369 0.0129405,0.230533 0.0186919,0.341246 0.0330702,0.700226 0.0330702,1.10713l0 0.00335495c0,4.05757 -4.1889,7.54001 -8.81921,5.82132 -4.67489,-1.76375 -5.07221,-8.95197 -5.07221,-8.95197 -6.59583,-0.346998 -13.1739,0.950889 -20.169,0.950889 -0.913026,0 -4.32357,-0.881873 -6.13429,-1.36786 -10.6194,-6.63753 -25.9961,-25.8211 -25.9961,-25.8211 0.000479279,-0.000479279 -0.733297,1.81503 -1.86008,4.71706 -1.33958,3.45033 -3.23897,8.44777 -5.15416,13.8449 -3.29696,9.29417 -6.63274,19.7348 -7.18679,25.361 0,0 19.6059,14.8715 26.2563,22.4417 0.00862702,0.0091063 0.0177333,0.0191712 0.0258811,0.0297153 0.226699,0.255935 0.439978,0.506118 0.634565,0.746237z"/>
  <path class="fil5" d="M58.6134 415.215c-1.80736,-1.45605 -11.4222,-3.66073 -14.4656,-4.54404 -3.0415,-0.926925 -4.40889,-2.9097 -4.71802,-5.11438 -0.352749,-2.20612 0.440936,-11.4222 0.440936,-11.4222l-5.20401 -6.0854 -1.05873 -1.19292c0,0 -13.23,8.77655 -13.23,9.92347 0,1.19245 6.83739,19.8455 10.2762,21.6092 3.4393,1.7647 30.3398,1.14596 30.3398,0.969102 0.000958558,-0.218072 -0.573217,-2.73285 -2.38058,-4.14289z"/>
  <path class="fil5" d="M82.2941 135.229c0,0 -0.00383423,0.0191712 -0.00383423,0.0239639l0.00143784 0c0,-0.00383423 0.00431351,-0.0239639 0.00191712,-0.0239639z"/>
  <path class="fil6" d="M129.216 58.8482c-8.55465,-7.10051 -23.9908,-5.24714 -30.4294,-3.21979 -6.39454,2.07144 -16.2274,5.15896 -22.5342,2.16107 -6.34996,-3.04342 -6.70223,-4.85078 -10.1415,-4.013 -3.39713,0.882352 0.220468,9.52567 2.2483,15.1265 2.02927,5.59989 5.07221,3.66025 4.36575,12.039 -0.661405,8.33514 -0.0872287,10.7608 0.882352,13.6705 0.97006,2.95475 3.66025,5.2481 3.66025,5.2481 0,0 0.150973,-2.09013 0.504681,-4.85701 0.0239639,-0.192191 0.0508035,-0.387737 0.0766846,-0.585679 0.0191712,-0.137553 0.037863,-0.275106 0.0570342,-0.415535 0.0565549,-0.414097 0.118861,-0.836821 0.183564,-1.26769 0.00479279,-0.0311531 0.0091063,-0.0608684 0.0138991,-0.0929801 0.190274,-1.2375 0.415535,-2.51478 0.682014,-3.75563 0.0330702,-0.157203 0.067099,-0.311531 0.102086,-0.466338 0.0675783,-0.300029 0.135636,-0.595744 0.208966,-0.889541 0.0508035,-0.205131 0.102566,-0.406908 0.155766,-0.605808 0.0555963,-0.206569 0.110713,-0.410742 0.168227,-0.61108 0.0723711,-0.248746 0.14618,-0.491261 0.222865,-0.729462 0.0393009,-0.120778 0.075726,-0.241556 0.115506,-0.358021 0.100649,-0.293798 0.204173,-0.572259 0.310093,-0.840655 0.0369045,-0.0920215 0.0718918,-0.182126 0.109755,-0.270793 0.115985,-0.269834 0.23245,-0.523852 0.356104,-0.760136 0.0321117,-0.0627855 0.0661405,-0.123175 0.0987314,-0.183084 0.13276,-0.238681 0.266958,-0.459149 0.406908,-0.652298 0.0239639,-0.0340288 0.049845,-0.061827 0.0742882,-0.0934594 0.150973,-0.195546 0.304342,-0.368565 0.465859,-0.504201 0.00335495,-0.00431351 0.00718918,-0.00814774 0.0115027,-0.011982 0.000479279,0 1.63194,3.08656 10.4948,5.90999 8.86378,2.82103 16.5375,0.176375 22.5788,-1.05777 3.74988,-0.800875 4.707,2.01872 4.75876,5.48391 0.000958558,0.0512828 -0.00239639,0.105921 -0.00143784,0.159121 0.00479279,0.642713 -0.0186919,1.30603 -0.0623062,1.97223 -0.0944179,1.44215 -0.273668,2.89149 -0.416014,4.16062 -0.0388216,0.313448 -0.0589513,0.609643 -0.0637441,0.886186 -0.0680576,4.15199 3.52366,4.13378 5.79736,0.744799 2.42515,-3.61568 2.33744,-13.4941 3.96939,-16.4493 1.67556,-2.91018 6.7909,-1.01463 8.1578,3.0439 0.0862702,0.243953 0.147139,0.485989 0.188357,0.725628 0.011982,0.070454 0.0105441,0.140429 0.0186919,0.21232 0.020609,0.163434 0.0393009,0.329265 0.0383423,0.492699 0,0.102086 -0.0153369,0.204173 -0.0225261,0.305301 -0.0105441,0.128926 -0.0177333,0.25929 -0.0393009,0.387257 -0.020609,0.11934 -0.0531999,0.23916 -0.0833945,0.358501 -0.0282774,0.109755 -0.0531999,0.21951 -0.0886666,0.328306 -0.0436144,0.13276 -0.0977729,0.266958 -0.151931,0.399718 -0.037863,0.0953765 -0.0752468,0.189794 -0.120299,0.285171 -0.067099,0.145701 -0.14618,0.291881 -0.227657,0.438061 -0.0455315,0.0819567 -0.0886666,0.164393 -0.137553,0.247308 -0.0944179,0.158162 -0.197463,0.318241 -0.304342,0.477362 -0.0484072,0.0694954 -0.0944179,0.13947 -0.144263,0.209445 -0.123654,0.174937 -0.254497,0.351791 -0.391091,0.529124 -0.0397801,0.0517621 -0.0814774,0.103524 -0.122695,0.154328 -0.160079,0.201297 -0.327827,0.405949 -0.504681,0.612518 -0.0138991,0.0162955 -0.0282774,0.0335495 -0.0421765,0.0508035 -1.66118,1.92191 -4.00677,3.67894 -6.45924,6.33271 -0.00143784,0.00143784 -0.00239639,0.00383423 -0.00383423,0.00479279 -0.0124612,0.0134198 -0.00575135,0.00718918 -0.0129405,0.0134198 -0.0091063,0.0105441 -0.0210883,0.0220468 -0.0306738,0.032591l-2.34703 4.04032 0.45196 1.74937c0,0 9.96612,-5.15896 12.7004,-11.6422 2.7271,-6.47985 -1.19772,-27.5595 -9.75284,-34.6595z"/>
  <path class="fil5" d="M222.266 399.648c-3.87976,-1.94108 -6.30491,-3.79301 -10.7608,-1.63194 -4.49803,2.11602 -18.3017,3.96939 -21.696,3.57111 -3.39665,-0.396364 -7.58602,-3.8812 -7.98191,-3.21979 -2.22721,2.45822 -6.33463,3.92481 -9.54436,6.07246 -0.529124,2.55839 -0.906316,6.40987 -0.466818,7.2443 0.706457,1.2792 6.04131,8.86522 8.86378,9.04064 2.82247,0.223823 45.5114,-19.1366 41.5861,-21.0768z"/>
  <path class="fil3" d="M104.829 133.814l0 0c-0.00718918,-0.0249225 -1.37936,-5.81892 -7.18726,-5.81892 -5.8218,0 -17.3317,-7.01185 -19.6682,-18.3008 -0.61779,-3.08799 -0.793206,-6.65958 -0.662843,-10.2321 0.0531999,-0.734255 0.201776,-2.41365 0.461066,-4.45921 0.0239639,-0.191712 0.0508035,-0.387257 0.0766846,-0.585199 0.0177333,-0.136594 0.037863,-0.275106 0.0570342,-0.415055 0.0565549,-0.414576 0.118861,-0.836821 0.183564,-1.26817 0.00479279,-0.0316324 0.0091063,-0.0613477 0.0138991,-0.0925008 0.190274,-1.23798 0.415535,-2.51478 0.682014,-3.75611 0.0316324,-0.157203 0.067099,-0.311531 0.102086,-0.465859 0.0675783,-0.300987 0.135636,-0.596702 0.208966,-0.890021 0.0508035,-0.205611 0.102566,-0.406908 0.155766,-0.606288 0.0555963,-0.20609 0.110713,-0.410263 0.168227,-0.610601 0.0723711,-0.249225 0.14618,-0.49174 0.222865,-0.728983 0.0393009,-0.121258 0.075726,-0.242036 0.115506,-0.358501 0.100649,-0.293798 0.204173,-0.572738 0.310093,-0.840655 0.0369045,-0.0915422 0.0733297,-0.182126 0.109755,-0.270793 0.115985,-0.270313 0.23245,-0.524331 0.354666,-0.760136 0.0335495,-0.0627855 0.0675783,-0.123654 0.100169,-0.183564 0.13276,-0.237722 0.266958,-0.460108 0.406908,-0.651819 0.0239639,-0.0340288 0.0484072,-0.0613477 0.0742882,-0.0934594 0.150973,-0.194108 0.304342,-0.369045 0.465859,-0.504681 0.00335495,-0.00335495 0.00718918,-0.00814774 0.0105441,-0.0115027 0,-0.000479279 1.6329,3.08703 10.4957,5.90951 8.86378,2.82151 16.5375,0.176375 22.5788,-1.05729 3.74844,-0.800875 4.707,2.01824 4.75876,5.48343 0.000958558,0.0517621 -0.00383423,0.105921 -0.00143784,0.159121 0.00479279,0.643671 -0.0186919,1.30651 -0.0623062,1.97271 -0.0944179,1.44167 -0.273668,2.89149 -0.416014,4.15918 -0.0388216,0.313928 -0.0589513,0.609643 -0.0637441,0.887145 -0.0680576,4.15199 3.52366,4.13474 5.79736,0.745278 2.42515,-3.61616 2.33648,-13.4941 3.96939,-16.4493 1.67556,-2.91018 6.7909,-1.01463 8.1578,3.04342 0.0862702,0.244911 0.147139,0.486468 0.188357,0.726107 0.011982,0.070454 0.0105441,0.140429 0.0186919,0.211841 0.020609,0.164393 0.0393009,0.329744 0.0383423,0.493178 0,0.102086 -0.0143784,0.203693 -0.0239639,0.304821 -0.0091063,0.129405 -0.0162955,0.259769 -0.037863,0.387737 -0.020609,0.11934 -0.0531999,0.23916 -0.0833945,0.358021 -0.0282774,0.110234 -0.0531999,0.219989 -0.0886666,0.329265 -0.0436144,0.132281 -0.0977729,0.266479 -0.151931,0.399239 -0.0388216,0.0948972 -0.0752468,0.189315 -0.120299,0.285171 -0.0694954,0.14618 -0.14618,0.291881 -0.228616,0.438061 -0.0445729,0.0819567 -0.087708,0.164393 -0.136594,0.247787 -0.0944179,0.157683 -0.197463,0.317283 -0.304342,0.476403 -0.0474486,0.0699747 -0.0944179,0.139949 -0.144263,0.210403 -0.123654,0.174937 -0.253059,0.350832 -0.391091,0.528165 -0.0397801,0.0522414 -0.0814774,0.104003 -0.122695,0.154807 -0.160079,0.201776 -0.326389,0.406428 -0.504681,0.612518 -0.0138991,0.0167748 -0.0282774,0.0335495 -0.0421765,0.0508035 -1.45174,1.6746 -3.42732,3.50305 -5.53663,5.69 -0.351311,0.351791 -0.659008,0.659008 -0.92357,1.00888 -0.000958558,0.000958558 -0.00239639,0.00335495 -0.00335495,0.00479279 -0.0124612,0.0129405 -0.00575135,0.00766846 -0.0129405,0.0134198 -0.0138991,0.0153369 -0.0301946,0.0311531 -0.0301946,0.0311531 -0.8373,1.14596 -1.27824,2.60248 -1.89603,5.42352 -0.133239,0.441416 -0.221906,0.926446 -0.352749,1.45653 -1.45461,6.70176 -7.67421,9.61337 -7.67421,9.61337l-0.661405 15.8306c0,0 0.359459,0.250184 0.675783,1.19005 -0.00239639,0 -0.0143784,-0.00239639 -0.0143784,-0.00239639 0.0623062,0.167268 0.122695,0.36569 0.17925,0.586637 0.00527207,0.0220468 0.0105441,0.0407387 0.0153369,0.0627855 0.0460108,0.19267 0.0872287,0.415055 0.122695,0.651819 0.0167748,0.0891459 0.0282774,0.182126 0.0397801,0.277502 0.0321117,0.241556 0.0603891,0.497491 0.0814774,0.784579 0.00527207,0.0738089 0.00814774,0.155286 0.0129405,0.231012 0.0191712,0.341246 0.0345081,0.699747 0.0345081,1.10713l0 0.00335495c0,4.05757 -4.19129,7.54001 -8.8216,5.8218 -4.67824,-1.76039 -5.07556,-8.94909 -5.07556,-8.94909z"/>
  <path class="fil6" d="M100.481 117.156c-1.39614,1.85768 -2.24782,3.45943 -6.33319,3.36741 -3.18289,-0.087708 -4.73048,-1.86439 -5.3315,-2.95044 -0.566987,-1.02326 -0.701185,-1.27153 0.66476,-1.4872 3.01035,-0.476403 10.6472,-0.410263 10.9999,1.07023z"/>
 </g>
</svg>
