<svg width="35.6552" height="23.9703" xmlns="http://www.w3.org/2000/svg">
 <defs>
  <style type="text/css">
   <![CDATA[
    .fil5 {fill:#2E211D}
    .fil4 {fill:#4A7F8B}
    .fil0 {fill:#589CA9}
    .fil1 {fill:#7BB5C2}
    .fil3 {fill:#ADD1D7}
    .fil2 {fill:#CDE3E5}
    .fil6 {fill:#F9E6E0}
   ]]>
  </style>
 </defs>
 <g>
  <title>Layer 1</title>
  <g id="图层_x0020_1">
   <metadata transform="translate(-9.313225746154785e-9,0) translate(0.0001688096672296524,0) translate(-0.00016882542695384473,0) translate(0,1.4901161193847656e-8) translate(0,0.0001720041036605835) translate(0,-2.4294852352113594e-8) translate(0,0.00017199470312334597) translate(0,2.5916101265011093e-8) translate(0,-0.00017200798902194947) translate(0,5.5074700355817185e-9) translate(0,-9.393691158265938e-9) translate(0,5.5074700355817185e-9) translate(0,-0.00017201350419782102) translate(0,-1.4901161193847656e-8) translate(-0.12482910603284836,0) translate(0,0.06249898672103882) translate(-0.062498968094587326,-1.062482476234436) translate(0,-0.062498968094587326) translate(0.18749690055847168,1.062482476234436) translate(0,-1.4901161193847656e-8) translate(0,0.18766891956329346) translate(-0.00008439916564384475,0) translate(0.1250823736190796,0) translate(0.562490701675415,1.7499711513519287) translate(0,-0.00017204330652020872) translate(0,-0.18708932399749756) translate(1.0102993996952137e-9,0) translate(-0.00008440661622444168,0) translate(-0.00008439874363830313,0) translate(-0.18743211030960083,0) translate(0.12499793618917465,0.18749690055847168) translate(0.062498968094587326,0) " id="CorelCorpID_0Corel-Layer"/>
   <path id="svg_1" d="m24.952165,5.318398c0,0 -1.5409,-3.78675 -6.01895,-5.14194c-4.47801,-1.35514 0.219911,5.52761 1.80221,5.91167c1.58226,0.384145 4.24661,-0.20542 4.21674,-0.769731l0,0.000001z" class="fil0"/>
   <path id="svg_2" d="m28.302765,13.574308c0,0 -0.225589,3.46036 -3.52705,5.60116c-3.30163,2.14115 -1.33548,-4.58453 -0.142794,-5.26337c1.19248,-0.678546 3.53942,-0.807569 3.66985,-0.33779l-0.000006,0z" class="fil1"/>
   <path id="svg_3" d="m34.033465,15.904908c0,0 2.17898,-3.60993 0.243682,-6.56509c-1.9353,-2.95524 -15.4094,-11.3115 -27.0135,7.00779c0,0 -0.44622,0.506516 -0.038516,0.829349c0.40745,0.322579 0.806002,0.311943 1.79348,-0.151184c0.987693,-0.462957 11.7772,-6.71114 21.6323,1.98115c0.000042,0 2.24534,2.04462 3.77861,1.24324c1.53421,-0.801129 1.86645,-2.52398 -0.396009,-4.34526l-0.000047,0.000005z" class="fil0"/>
   <path id="svg_4" d="m9.018575,17.025708c0.987481,-0.462661 11.7772,-6.7111 21.6326,1.98145c0,0 2.24504,2.04437 3.77866,1.2432c0.224233,-0.117244 0.42228,-0.253893 0.590751,-0.407874c-0.037584,0.024025 -1.02926,0.644352 -2.34025,-0.858882c-1.33663,-1.53239 -10.2505,-14.341 -23.6618,-1.95789l0.000039,-0.000004z" class="fil2"/>
   <path id="svg_7" d="m26.397865,14.187208c0,0 -2.18958,3.48311 -6.82474,4.14106c-4.6355,0.657276 1.20468,-5.38956 2.82579,-5.52879c1.62082,-0.139531 4.12899,0.838713 3.99895,1.38773z" class="fil2"/>
   <path id="svg_9" d="m8.796595,17.105208c0,0 0.213428,0.939389 1.16218,1.95738c0.948584,1.01782 1.75289,3.28532 -0.100676,4.87071c0,0 -0.135802,0.144277 -0.30974,-0.134319c-0.174234,-0.278808 -0.200928,-0.781553 -1.44374,-2.00242c-1.24226,-1.22091 -1.82687,-2.24729 -1.09587,-3.53548c0.7313,-1.28849 1.78785,-1.15587 1.78785,-1.15587l-0.000004,-0.000001z" class="fil0"/>
   <path id="svg_10" d="m8.531425,16.485608c0,0 -1.19358,0.096354 -2.72338,-0.518168c-1.5295,-0.614776 -4.50504,-0.672191 -5.78824,1.7084c0,0 -0.127201,0.183895 0.263131,0.266351c0.390332,0.082541 0.999896,-0.056821 2.86952,0.78507c1.86937,0.842187 3.28892,1.08905 4.58729,-0.068685c1.29858,-1.15849 0.79168,-2.17297 0.79168,-2.17297l-0.000001,0.000002z" class="fil0"/>
   <path id="svg_11" d="m32.331384,14.40756c-0.044703,0.120421 -0.115379,0.169785 -0.218809,0.168895c-0.103642,-0.000636 -1.04434,-0.771256 -2.03949,-0.726512c0.000042,0 -0.090634,-0.01233 -0.106947,-0.072922c-0.015508,-0.057711 0.738164,-0.804307 2.14568,-0.144743c0.295799,0.138218 0.323087,0.500075 0.219572,0.775282l-0.000006,0z" class="fil4"/>
  </g>
 </g>
</svg>