<?xml version="1.0" encoding="UTF-8"?>
<!DOCTYPE svg PUBLIC "-//W3C//DTD SVG 1.1//EN" "http://www.w3.org/Graphics/SVG/1.1/DTD/svg11.dtd">
<!-- Creator: CorelDRAW -->
<svg xmlns="http://www.w3.org/2000/svg" xml:space="preserve" width="68.1202mm" height="92.1185mm" style="shape-rendering:geometricPrecision; text-rendering:geometricPrecision; image-rendering:optimizeQuality; fill-rule:evenodd; clip-rule:evenodd"
viewBox="0 0 12.0611 16.3101"
 xmlns:xlink="http://www.w3.org/1999/xlink">
 <defs>
  <style type="text/css">
   <![CDATA[
    .fil8 {fill:#252226}
    .fil1 {fill:#7D4E43}
    .fil0 {fill:#824F44}
    .fil9 {fill:#CD3431}
    .fil4 {fill:#CDA384}
    .fil7 {fill:#D3897B}
    .fil3 {fill:#E48E71}
    .fil5 {fill:#E4A945}
    .fil2 {fill:#EDB58C}
    .fil6 {fill:#E09142}
   ]]>
  </style>
 </defs>
 <g id="图层_x0020_1">
  <metadata id="CorelCorpID_0Corel-Layer"/>
  <path class="fil0" d="M6.67056 1.84714c-1.15442,-0.0877666 -1.0887,1.68125 -1.69414,2.24344 -0.388797,0.36107 -0.49434,0.144371 -0.86097,0.355493 -0.366594,0.211015 -0.422154,0.527697 -0.366594,0.522102 0.0555247,-0.00550644 0.0277978,-0.0944239 0.216646,-0.0500006 0.188812,0.0444941 0.0277978,0.172169 0.272206,0.355511 0.244373,0.183288 0.0222205,0.0166255 0.388797,0.0944416 0.36663,0.0776921 0.155526,0.127728 0.627663,0.349933 0.47212,0.22217 0.785863,0.1798 1.52199,-0.055507 0.736057,-0.235307 0.772088,-0.794414 1.00536,-1.68308 0.233236,-0.88875 -0.0444764,-1.64412 -0.244426,-1.80524 -0.199967,-0.161015 -0.422154,-0.149931 -0.422154,-0.149931 -0.129782,-0.137059 -0.252145,-0.162573 -0.444375,-0.177162z"/>
  <path class="fil1" d="M7.1581 2.5151c0.138281,0.102639 0.384778,0.340443 0.421605,0.619253 0.108659,0.824124 -0.616703,1.83655 -1.44982,2.0329 -0.683117,0.161103 -1.3858,0.218894 -1.19283,0.00393064 0.59836,-0.666438 0.650787,-0.29802 0.692961,-1.14259 0.0111545,-0.222205 -0.104888,-0.395932 0.0095079,-0.744998 0.114396,-0.349154 0.301933,-0.580513 0.335061,-0.570315 0.0330917,0.0102869 1.18351,-0.198161 1.18351,-0.198179z"/>
  <path class="fil2" d="M7.28153 3.46399c0.0392002,-0.0348269 0.175338,-0.162998 0.241363,-0.0342957 0.066095,0.128596 -0.0315159,0.282652 -0.151223,0.39742 -0.119743,0.114768 -0.186174,0.0842432 -0.194549,-0.00447951 -0.00839245,-0.0887227 0.10441,-0.358644 0.10441,-0.358644z"/>
  <path class="fil2" d="M5.90639 3.02144c-0.0150675,-0.0502485 -0.0640765,-0.230651 -0.187662,-0.155579 -0.12355,0.0749832 -0.121124,0.257174 -0.0791971,0.417728 0.0418206,0.160483 0.114396,0.169301 0.168026,0.0980713 0.0535948,-0.0711765 0.0988326,-0.36022 0.0988326,-0.36022z"/>
  <path class="fil4" d="M5.21224 9.37484c0,0 -0.946134,1.38874 -1.17501,2.07548 -0.228916,0.686747 0.198391,1.25141 0.366169,1.49557 0.167849,0.24416 1.26673,1.70912 1.34299,1.96863 0.0762757,0.259387 0.022911,0.96522 -0.0992044,1.11784 -0.122098,0.152551 -0.22217,0.268842 -0.16406,0.274631 0.694095,0.069884 1.00918,-1.05662 0.89353,-1.20375 -0.0839068,-0.106853 -0.24416,-0.137413 -0.24416,-0.137413 0,0 -0.25643,-1.40574 -0.48531,-2.00858 -0.228933,-0.602716 -0.534195,-1.03006 -0.534195,-1.03006 0,-3.54112e-005 0.740235,-1.01485 0.992009,-1.4346 0.251809,-0.41964 0.358556,-0.640925 0.358556,-0.640925l-1.25131 -0.476847z"/>
  <path class="fil4" d="M5.7796 9.44806c0,0 -0.449864,1.61911 -0.44611,2.34296 0.00387752,0.723875 0.58995,1.12131 0.827276,1.29858 0.23745,0.177375 1.74855,1.2117 1.90418,1.43295 0.155579,0.221196 0.331785,0.906739 0.265194,1.09047 -0.0665376,0.183695 -0.123939,0.325889 -0.0671219,0.312769 0.679771,-0.156872 0.616261,-1.32482 0.45946,-1.42702 -0.113741,-0.0742218 -0.27534,-0.0516649 -0.27534,-0.0516649 0,0 -0.694466,-1.2489 -1.10483,-1.74616 -0.410433,-0.497332 -0.836695,-0.803922 -0.836695,-0.803922 0,-1.77056e-005 0.37481,-1.19888 0.478423,-1.67716 0.103666,-0.478405 0.133713,-0.722264 0.133713,-0.722264l-1.33815 -0.0495402z"/>
  <path class="fil2" d="M4.72107 3.16879c-0.133341,-0.833154 0.799885,-1.97185 0.866565,-2.10514 0.0665376,-0.133288 -0.122275,-0.17224 -0.122275,-0.17224 1.77056e-005,0 -0.66658,0.488816 -1.31083,1.73306 -0.644324,1.24415 0.810934,2.46623 0.810934,2.46623 0,-1.77056e-005 -0.183324,0.505459 -0.238902,0.81644 -0.0555247,0.311034 0.0889883,0.488816 0.255545,0.688783 0.595545,0.683524 0.395543,1.36218 0.111899,1.8712 0.14446,0.111067 2.31545,0.289539 2.48206,0.0451493 -0.34926,-0.880623 -0.638658,-1.6633 -0.0610489,-3.18663 1.55675,-1.32919 1.8777,-2.23483 -0.0616509,-4.34821l-0.121691 0.169496c0.935864,1.14387 1.23484,3.01317 -0.57768,3.39937 -0.167867,0.0356236 -0.322366,0.0525856 -0.460859,0.0575255 -0.896611,0.0324366 -1.42723,-0.52968 -1.57206,-1.43502z"/>
  <path class="fil5" d="M4.96546 5.09064c0,0 -0.30551,0.477679 -0.36107,0.788731 -0.055507,0.311052 0.0722034,0.522102 0.238813,0.722105 0.273392,0.327978 0.351208,1.30669 0.0341718,1.84894 1.36,0.466277 2.36111,0.951729 2.59351,0.755444 0.440427,-1.48948 -0.720617,-1.05106 -0.0128897,-3.64301 0,-3.54112e-005 -0.592925,-0.383485 -0.748468,-0.372402 -0.155526,0.0111368 -0.683223,0.0611374 -0.910988,0.100001 -0.227747,0.0389523 -0.610967,-0.288814 -0.833083,-0.199808z"/>
  <path class="fil6" d="M7.57608 8.51225c1.55823,2.79378 3.71022,3.92682 4.485,4.63624 -0.866529,1.21306 -2.31894,1.47603 -3.57403,0.984873 -1.02207,-0.399969 -0.0445119,-0.311069 -2.06635,0.133288 -2.02185,0.444375 -1.9888,-0.35181 -2.6554,-0.329572 -0.666456,0.0221851 -0.655071,0.507318 -1.83269,0.129676 -1.17751,-0.377713 -2.08811,-1.30331 -1.91073,-1.42199 2.53615,-1.5491 2.89561,-1.63354 4.89685,-4.27246 0.421853,0.241911 0.905039,0.604363 2.65734,0.139945z"/>
  <path class="fil2" d="M6.70797 3.9973c-0.35953,0.709127 0.0666438,0.838749 0.0111368,0.855481 -0.0555955,0.016537 -0.533257,0.138812 -0.872089,0.011066 -0.33892,-0.127746 -0.266646,-0.222187 -0.266646,-0.222187 0.207598,-0.176064 0.237644,-0.240955 0.383273,-0.777683l0.744325 0.133323z"/>
  <path class="fil2" d="M6.74404 4.3208c-0.180261,0.125055 -0.43145,0.167176 -0.595067,0.0719378 -0.377448,-0.219921 -0.50615,-0.843919 -0.311123,-1.38001 0.269284,-0.740058 0.899887,-1.19283 1.33305,-0.801621 0.59528,0.537666 0.169513,1.69588 -0.426864,2.10969z"/>
  <path class="fil0" d="M7.17324 2.09643c0,0 0.177746,0.0777452 -0.30551,0.466595 -0.483203,0.388815 -1.01646,0.0999481 -1.01646,0.0999481 0,0 0.355475,-0.527644 0.622104,-0.627592 0.266646,-0.100037 0.699867,0.0610666 0.699867,0.0610489z"/>
  <path class="fil0" d="M6.81219 2.19641c0,0 -0.0721503,0.144389 0.227765,0.455459 0.299933,0.311087 0.461018,0.344427 0.461018,0.344427 0,0 0.0394126,-0.567712 -0.0333396,-0.738783 -0.0727346,-0.171001 -0.32773,-0.193079 -0.402731,-0.220806 -0.0749301,-0.0277978 -0.252712,0.159722 -0.252712,0.159704z"/>
  <path class="fil9" d="M6.40425 3.92933c-0.00102692,0.000300995 -0.0212821,-0.0599334 -0.0807729,-0.0487612 -0.102551,0.0192991 -0.232598,-0.0174046 -0.228331,-0.00233714 0.0295329,0.10441 0.0396428,0.188511 0.219124,0.253296 0.20349,0.0733897 0.31624,-0.0667501 0.308874,-0.0699017 -0.128773,-0.0542676 -0.107862,-0.163387 -0.218894,-0.132296z"/>
  <path class="fil2" d="M5.59176 0.845796c0.0694059,-0.122169 0.0555778,-0.122151 0.191557,-0.227729 0.136138,-0.105543 0.208395,-0.188848 0.2028,-0.111032 -0.00554185,0.0776921 -0.172151,0.199896 -0.183324,0.238848 -0.011066,0.0388461 -0.0134031,0.111227 -0.0957872,0.230651 -0.0823487,0.119477 -0.173586,0.17479 -0.173586,0.0914848 0,-0.0833225 0.0583399,-0.222223 0.0583399,-0.222223z"/>
  <path class="fil2" d="M5.66674 0.351456c0.0360486,-0.044441 0.391524,-0.244373 0.394374,-0.216575 0.0028506,0.0277978 -0.0138989,0.0832517 -0.0500006,0.116662 -0.0361194,0.0332511 -0.36385,0.258218 -0.355528,0.230491 0.00832163,-0.0277978 0.0111545,-0.130579 0.0111545,-0.130579z"/>
  <path class="fil2" d="M5.63064 0.448677c0.0299579,0.00329324 0.313814,-0.102781 0.311052,-0.0749832 -0.00283289,0.0277092 -0.0166255,0.0443525 -0.0944593,0.094477 -0.0777098,0.0498943 -0.230527,0.0916087 -0.230527,0.0916087l0.0139343 -0.111103z"/>
  <path class="fil2" d="M5.28489 1.26935c0.0444233,-0.055507 0.0703443,-0.0798522 0.0989742,-0.22047 0.0287539,-0.140635 0.117618,-0.546058 0.184297,-0.634922 0.0666438,-0.0888644 0.405423,-0.494322 0.427749,-0.399898 0.0221143,0.0944062 -0.270896,0.412399 -0.270896,0.412399 1.77056e-005,-1.77056e-005 -0.0638286,0.183324 -0.0361017,0.308219 0.0277978,0.124966 0.0555778,0.244496 -0.0388815,0.338867 -0.0943354,0.0944239 -0.365142,0.195806 -0.365142,0.195806z"/>
  <path class="fil2" d="M7.35354 0.984661c-0.0694236,-0.122186 -0.0555955,-0.122169 -0.191645,-0.227676 -0.13605,-0.105614 -0.208324,-0.188901 -0.202729,-0.111103 0.00548873,0.0777098 0.172169,0.199896 0.183341,0.238848 0.0110837,0.0388461 0.0134208,0.111244 0.0957341,0.230651 0.0824018,0.119495 0.173639,0.17479 0.173639,0.0914671 0,-0.0833048 -0.0583399,-0.222187 -0.0583399,-0.222187z"/>
  <path class="fil2" d="M7.27856 0.490321c-0.0361194,-0.044441 -0.391612,-0.24439 -0.394374,-0.216592 -0.00281519,0.0277801 0.0138989,0.0833048 0.050036,0.116662 0.0360309,0.0332511 0.363814,0.258236 0.355493,0.230491 -0.00839245,-0.0277978 -0.0111545,-0.130561 -0.0111545,-0.130561z"/>
  <path class="fil2" d="M7.31467 0.587525c-0.0300641,0.00329324 -0.31392,-0.102746 -0.311069,-0.0749478 0.00272666,0.0276738 0.0166255,0.0444233 0.0944062,0.0944416 0.0777629,0.0498943 0.230527,0.0916264 0.230527,0.0916264l-0.0138635 -0.11112z"/>
  <path class="fil2" d="M7.66041 1.4082c-0.0444233,-0.0555778 -0.0703443,-0.0798522 -0.0990982,-0.22047 -0.0286299,-0.1406 -0.117494,-0.546058 -0.184174,-0.634922 -0.0666438,-0.0888644 -0.405511,-0.494287 -0.427749,-0.399916 -0.0221851,0.0944239 0.270807,0.412399 0.270807,0.412399 0,0 0.0639172,0.183341 0.0361194,0.308307 -0.027727,0.125019 -0.0555247,0.244443 0.0388638,0.338779 0.0944239,0.094477 0.365231,0.195824 0.365231,0.195824z"/>
  <path class="fil5" d="M9.24058 13.05c-0.177764,0.488816 -1.55533,-2.9884 -1.91073,-3.55493 -0.327819,-0.522386 -0.00396605,2.07159 -0.0124116,3.17603 -0.000690518,0.0935032 -0.00377129,0.176259 -0.00991513,0.245612 -0.0776921,0.88875 -0.388797,-0.0888998 -0.666474,-0.577733 -0.194478,-0.34232 -0.296409,0.230668 -0.423872,0.791847 -0.0545863,0.240105 -0.113865,0.478104 -0.187113,0.641261 -0.100479,0.223746 -0.204677,-0.30705 -0.303368,-1.05081 -0.0579504,-0.436159 -0.113918,-0.945602 -0.16622,-1.41903 -0.025018,-0.227287 -0.0492215,-0.446163 -0.0723804,-0.644838 -0.0464241,-0.398287 -0.0884748,-0.714633 -0.124577,-0.851285 -0.12532,-0.474173 -0.561958,2.00472 -0.952207,3.15106 -0.0942823,0.277075 -0.185909,0.476174 -0.26978,0.537205 -0.430954,0.313088 -0.277765,-1.37757 -0.22217,-1.85524 0.055507,-0.477661 -1.19985,1.12204 -1.75523,1.19982 -0.555548,0.0777452 1.19973,-1.57753 1.55526,-2.47738 0.355493,-0.899833 0.0711942,-0.569766 0.0711942,-0.569766 -1.13852,1.32834 -1.79336,1.6465 -3.76867,2.85297 -0.177357,0.118716 0.733135,1.04422 1.91066,1.42197 1.17762,0.377713 1.16621,-0.107438 1.83281,-0.129658 0.534638,-0.0178118 0.619129,0.490976 1.67529,0.463639 0.164237,-0.00433787 0.351969,-0.0215123 0.568668,-0.0556664 0.12679,-0.020025 0.263636,-0.0458575 0.411319,-0.0783472 0.495119,-0.108854 0.810296,-0.196302 1.01908,-0.260502 0.541579,-0.16661 0.367037,-0.176578 0.756949,0.00398376 0.0737438,0.0341541 0.167513,0.0751248 0.290319,0.123178 1.25513,0.491171 2.70752,0.22826 3.57403,-0.984873 -0.318028,-0.291275 -0.868282,-0.653885 -1.51415,-1.17347 0.174276,0.556982 0.364894,1.13213 0.0156694,1.09722 -0.666562,-0.0666792 -1.04428,-1.36646 -1.37757,-1.34424 -0.333308,0.0222028 0.233342,0.833154 0.0555778,1.32199z"/>
  <path class="fil4" d="M6.00779 15.1766c0.0444233,0.105543 0.177746,0.299915 0.0555778,0.622121 -0.0667324,0.17571 -0.292001,0.369569 -0.509053,0.511373 0.64436,-0.0105348 0.93397,-1.0648 0.822318,-1.20692 -0.0839245,-0.106747 -0.244195,-0.137307 -0.244195,-0.137307 3.54112e-005,0 -0.0488851,-0.268434 -0.123089,-0.620846 -0.123249,0.0194584 -0.237113,0.0333396 -0.342639,0.0426174 0.115812,0.267089 0.31022,0.715624 0.34108,0.788961z"/>
  <path class="fil4" d="M8.22403 14.3934c0.155544,0.283254 0.283254,0.399969 0.355475,0.594324 0.045946,0.123744 -0.135147,0.598201 -0.261671,0.92278 0.621378,-0.205544 0.557071,-1.31234 0.404661,-1.41176 -0.113847,-0.0741687 -0.275357,-0.0516295 -0.275357,-0.0516295 0,0 -0.101825,-0.183023 -0.250534,-0.436921 -0.271869,-0.126011 -0.269178,-0.159262 -0.426475,-0.111315 0.174542,0.15434 0.373818,0.348747 0.4539,0.494517z"/>
 </g>
</svg>
