<svg width="303.825" height="220.195" xmlns="http://www.w3.org/2000/svg">
 <defs>
  <style type="text/css">
   <![CDATA[
    .fil3 {fill:#222223}
    .fil0 {fill:#E77817}
    .fil1 {fill:#F8C300}
    .fil2 {fill:#FFF500}
   ]]>
  </style>
 </defs>
 <g>
  <title>Layer 1</title>
  <g id="图层_x0020_1">
   <metadata transform="translate(-1.999945044517517,0) translate(4.76837158203125e-7,0) translate(0.003332376480102539,0) translate(-0.000015401839846163057,0) translate(-4.000011920928955,0) translate(0,-2.9969520568847656) translate(3.999890089035034,2.99991774559021) " id="CorelCorpID_0Corel-Layer"/>
   <path id="svg_1" d="m137.483251,89.815166c0,0 -19.0642,-36.7728 -46.3323,-58.8816c-29.2087,-23.6811 -71.6287,-39.6236 -90.1095,-25.7993c-9.56051,7.15364 3.40686,92.8898 39.0711,122.543c0,-0.000507 21.9931,-2.19733 42.3531,-8.20893c0,0 -40.3491,25.018 -43.5545,45.8559c-3.20544,20.8379 61.9622,59.6066 83.7762,54.3971c21.8145,-5.20897 29.9063,-42.1481 27.6643,-66.5923c-2.2435,-24.4441 6.16025,-56.1008 -12.8684,-63.3143l0,0.00043z" class="fil0"/>
   <path id="svg_2" d="m137.483251,89.815166c0,0 -23.6116,-38.341 -55.0176,-59.0211c-29.9245,-19.703 -63.1951,-25.5314 -73.511,-19.5208c-10.317,6.0116 1.3044,78.5419 36.9686,108.196c0.000507,0 16.1824,6.0116 36.5424,0c0,0 -32.5349,25.2468 -35.7403,46.0847c-3.20544,20.8374 54.148,53.6959 75.962,48.487c21.8145,-5.20947 29.9063,-36.4668 27.6643,-60.911c-2.2435,-24.4441 6.16025,-56.1008 -12.8684,-63.3143l0,-0.0005z" class="fil1"/>
   <path id="svg_4" d="m45.121351,41.600666c1.77116,-8.26626 52.2201,5.6113 50.5539,25.2458c-1.66462,19.6345 -54.1607,-8.41491 -50.5539,-25.2458z" class="fil0"/>
   <path id="svg_5" d="m48.327851,74.059866c-1.20191,-6.81321 17.2301,-10.0192 19.2342,0c2.00454,10.0176 -18.0328,6.81118 -19.2342,0z" class="fil0"/>
   <path id="svg_6" d="m70.330651,100.506966c-8.4347,-9.56812 17.394,-23.3011 25.3457,-16.3296c7.95069,6.9715 -10.1551,33.5607 -25.3457,16.3296z" class="fil0"/>
   <path id="svg_7" d="m102.871251,134.568966c6.16634,5.74777 -13.2175,24.1722 -20.4061,12.0217c-7.18763,-12.15 9.23124,-22.4411 20.4061,-12.0217z" class="fil0"/>
   <path id="svg_8" d="m108.938251,154.604966c-7.66962,-6.39008 -19.6086,14.427 -10.456,21.2382c9.15209,6.81169 20.4762,-12.8887 10.456,-21.2382z" class="fil0"/>
   <path id="svg_10" d="m119.256251,127.554966c5.89288,5.6671 -5.20897,15.0277 -9.61784,10.218c-4.40786,-4.80867 4.40888,-15.2266 9.61784,-10.218z" class="fil0"/>
   <path id="svg_11" d="m162.349251,89.815166c0,0 19.0642,-36.7728 46.3323,-58.8816c29.2077,-23.6811 71.6293,-39.6236 90.1085,-25.7993c9.56102,7.15364 -3.40635,92.8898 -39.0711,122.543c0,-0.000507 -21.9931,-2.19733 -42.3521,-8.20893c0,0 40.3486,25.018 43.5535,45.8559c3.20595,20.8379 -61.9622,59.6066 -83.7757,54.3971c-21.8145,-5.20897 -29.9063,-42.1481 -27.6638,-66.5923c2.2435,-24.4441 -6.16126,-56.1008 12.8684,-63.3143l0,0.00043z" class="fil0"/>
   <path id="svg_12" d="m162.349251,89.815166c0,0 23.6111,-38.341 55.0176,-59.0211c29.9251,-19.703 63.194,-25.5314 73.51,-19.5208c10.317,6.0116 -1.3044,78.5419 -36.9686,108.196c0.000507,0 -16.1824,6.0116 -36.5414,0c0,0 32.5344,25.2468 35.7408,46.0847c3.20493,20.8374 -54.1495,53.6959 -75.963,48.487c-21.8145,-5.20947 -29.9063,-36.4668 -27.6638,-60.911c2.2435,-24.4441 -6.16126,-56.1008 12.8684,-63.3143l0,-0.0005z" class="fil1"/>
   <path id="svg_14" d="m254.709251,41.600666c-1.77116,-8.26626 -52.2195,5.6113 -50.5539,25.2458c1.66563,19.6345 54.1607,-8.41491 50.5539,-25.2458z" class="fil0"/>
   <path id="svg_15" d="m251.503251,74.059866c1.20293,-6.81321 -17.2301,-10.0192 -19.2342,0c-2.00403,10.0176 18.0322,6.81118 19.2342,0z" class="fil0"/>
   <path id="svg_16" d="m229.501251,100.506966c8.43369,-9.56812 -17.3945,-23.3011 -25.3472,-16.3296c-7.94917,6.9715 10.1556,33.5607 25.3472,16.3296z" class="fil0"/>
   <path id="svg_17" d="m196.960251,134.568966c-6.16583,5.74777 13.217,24.1722 20.4061,12.0217c7.18763,-12.15 -9.23124,-22.4411 -20.4061,-12.0217z" class="fil0"/>
   <path id="svg_18" d="m190.894251,154.604966c7.66911,-6.39008 19.6076,14.427 10.455,21.2382c-9.15159,6.81169 -20.4762,-12.8887 -10.455,-21.2382z" class="fil0"/>
   <path id="svg_20" d="m180.575251,127.554966c-5.89338,5.6671 5.20846,15.0277 9.61784,10.218c4.40837,-4.80867 -4.40938,-15.2266 -9.61784,-10.218z" class="fil0"/>
   <path id="svg_21" d="m159.916443,63.224938l-2.51189,-2.62554c6.30028,-6.02732 6.10292,-20.3118 6.09886,-20.4559l3.63517,-0.072551c0.014713,0.649916 0.232874,16.0191 -7.22213,23.154l-0.00001,-0.000009z" class="fil0"/>
   <path id="svg_22" d="m157.342429,34.668979c0,4.68335 3.79549,8.48087 8.47935,8.48087c4.68335,0 8.47884,-3.79752 8.47884,-8.48087c0,-4.68183 -3.79549,-8.47884 -8.47884,-8.47884c-4.68335,-0.000507 -8.47935,3.79701 -8.47935,8.47884z" class="fil0"/>
   <path id="svg_23" d="m139.873251,62.224966c-7.45653,-7.13487 -7.23735,-22.504 -7.22467,-23.1534l3.63415,0.072044c-0.002537,0.144088 -0.197867,14.4285 6.10241,20.4559l-2.51189,2.62554l0,-0.000084z" class="fil0"/>
   <path id="svg_24" d="m166.584526,71.313379c0,10.0349 -7.096244,18.1708 -15.850844,18.1708c-8.75359,0 -15.850465,-8.13536 -15.850465,-18.1708c0,-10.0354 7.096875,-18.1708 15.850465,-18.1708c8.7546,0 15.850465,8.13536 15.850844,18.1708z" class="fil0"/>
   <path id="svg_26" d="m142.945251,35.168966c0,4.68335 -3.7965,8.48087 -8.47985,8.48087c-4.68234,0 -8.47884,-3.79752 -8.47884,-8.48087c0.000507,-4.68183 3.7965,-8.47884 8.47884,-8.47884c4.68386,-0.000507 8.47985,3.79701 8.47985,8.47884z" class="fil0"/>
   <path transform="rotate(2 149.0000457763672,131.36790466308614) " id="svg_29" d="m140.615223,85.334952c0,0 -9.38801,23.016 -7.26881,45.7316c2.12123,22.712 17.3803,46.3343 19.1378,46.3343c1.75898,0 11.146,-24.5304 12.3585,-47.8502c1.21155,-23.3199 -6.96491,-42.7011 -6.96491,-42.7011l-17.2626,-1.51444l0.00002,-0.00016z" class="fil0"/>
  </g>
 </g>
</svg>