<svg width="12.8126" height="12.8126" xmlns="http://www.w3.org/2000/svg">
 <defs>
  <style type="text/css">
   <![CDATA[
    .fil0 {fill:#589CA9}
    .fil1 {fill:white}
    .fil2 {fill:#36808E}
   ]]>
  </style>
 </defs>
 <g>
  <title>Layer 1</title>
  <g id="图层_x0020_1">
   <metadata transform="translate(0,-7.450580596923828e-9) translate(0,-0.22371354699134827) translate(0.000024870882043614984,0) translate(-6.790160966829717e-8,0) translate(0.000025681305487523787,0) translate(-8.545883178710938,0) translate(8.00894546508789,-0.22371354699134827) translate(0.4921698272228241,0.40268439054489136) translate(0.04474271088838577,0) translate(0.000024727631171117537,0) translate(-0.13422775268554688,0) translate(-0.3579416871070862,0.08948542177677155) translate(0.40268439054489136,0.04474271088838577) translate(0.04474271088838577,0) translate(0.04474271088838577,-0.08948542177677155) " id="CorelCorpID_0Corel-Layer"/>
   <path id="svg_1" d="m6.40631,0c3.53749,0 6.40629,2.86877 6.40629,6.40626c0,3.53752 -2.8688,6.40629 -6.40629,6.40629c-3.53749,0 -6.40626,-2.86877 -6.40626,-6.40629c0,-3.53749 2.86877,-6.40626 6.40626,-6.40626z" class="fil0"/>
   <path id="svg_2" d="m6.40631,0.55977c3.22841,0 5.84653,2.61812 5.84653,5.84649c0,3.22841 -2.61812,5.84653 -5.84653,5.84653c-3.22838,0 -5.8465,-2.61812 -5.8465,-5.84653c0,-3.22838 2.61812,-5.8465 5.8465,-5.8465l0,0.00001z" class="fil1"/>
   <g id="_235743112"/>
   <path id="svg_3" d="m6.40631,5.87762c0.29196,0 0.52868,0.23672 0.52868,0.52865c0,0.29196 -0.23672,0.52867 -0.52868,0.52867c-0.29193,0 -0.52868,-0.23671 -0.52868,-0.52867c0,-0.29193 0.23675,-0.52865 0.52868,-0.52865z" class="fil2"/>
   <path transform="rotate(50 7.62863779067993,5.8076682090759295) " id="svg_4" d="m7.860383,4.622353l-0.00003,0c0.16787,0.03282 0.27837,0.19699 0.24555,0.36485l-0.34413,1.76025c-0.03282,0.16787 -0.19702,0.27834 -0.36488,0.24553l0.00003,0c-0.16787,-0.03282 -0.27837,-0.19702 -0.24555,-0.36488l0.34413,-1.76022c0.03282,-0.16787 0.19701,-0.27834 0.36488,-0.24553z" class="fil2"/>
   <path transform="rotate(90 6.406301021575928,4.258625030517579) " id="svg_5" d="m4.644,4.25861l0,0.00003c0,-0.10572 0.08649,-0.1922 0.1922,-0.1922l0.71527,0l0.13999,0l0.25316,0l0.20807,0l0.64718,0l0.06809,0l0.39317,0l0.25401,0l0.46126,0c0.10571,0 0.1922,0.08648 0.1922,0.1922l0,-0.00003c0,0.10571 -0.08649,0.1922 -0.1922,0.1922l-0.46126,0l-0.25401,0l-0.39317,0l-0.06809,0l-0.64718,0l-0.20807,0l-0.25316,0l-0.13999,0l-0.71527,0c-0.10571,0 -0.1922,-0.08649 -0.1922,-0.1922z" class="fil2"/>
  </g>
 </g>
</svg>