<?xml version="1.0" encoding="UTF-8"?>
<!DOCTYPE svg PUBLIC "-//W3C//DTD SVG 1.1//EN" "http://www.w3.org/Graphics/SVG/1.1/DTD/svg11.dtd">
<!-- Creator: CorelDRAW -->
<svg xmlns="http://www.w3.org/2000/svg" xml:space="preserve" width="45.9684mm" height="62.0327mm" style="shape-rendering:geometricPrecision; text-rendering:geometricPrecision; image-rendering:optimizeQuality; fill-rule:evenodd; clip-rule:evenodd"
viewBox="0 0 9.18078 12.3891"
 xmlns:xlink="http://www.w3.org/1999/xlink">
 <defs>
  <style type="text/css">
   <![CDATA[
    .fil1 {fill:#824F44}
    .fil0 {fill:#00A13A}
   ]]>
  </style>
 </defs>
 <g id="图层_x0020_1">
  <metadata id="CorelCorpID_0Corel-Layer"/>
  <path class="fil0" d="M3.73387 9.6326c-0.139903,0.0423804 -0.290052,0.0653681 -0.446273,0.0653681 -0.758075,0 -1.37285,-0.541759 -1.37285,-1.20984 0,-0.133692 0.0246853,-0.262311 0.0701414,-0.382562 -0.0152985,0.000319551 -0.0306569,0.00051927 -0.0460553,0.00051927 -1.07062,0 -1.93884,-0.765145 -1.93884,-1.70864 0,-0.897139 0.784997,-1.63293 1.78255,-1.70311 -0.324744,-0.255221 -0.529316,-0.626679 -0.529316,-1.04022 0,-0.769519 0.708085,-1.39354 1.58126,-1.39354 0.0271419,0 0.0541239,0.00061913 0.0809263,0.00179747 0.862368,-3.01652 2.48758,-3.01652 3.34995,0 0.0268023,-0.00117834 0.0537844,-0.00179747 0.0809063,-0.00179747 0.873173,0 1.58126,0.624023 1.58126,1.39354 0,0.413539 -0.204573,0.784997 -0.529316,1.04022 0.997558,0.0701814 1.78255,0.805967 1.78255,1.70311 0,0.943494 -0.86822,1.70864 -1.93884,1.70864 -0.0153984,0 -0.0307568,-0.000199719 -0.0460553,-0.00051927 0.0454561,0.120251 0.0701414,0.24887 0.0701414,0.382562 0,0.668081 -0.614756,1.20984 -1.37283,1.20984 -0.0473335,0 -0.0941277,-0.00211702 -0.140243,-0.00623124 -0.124485,-0.0111443 -0.244057,-0.0369481 -0.356459,-0.075414 -0.735347,-0.251706 -0.934607,-0.204213 -1.66262,0.0162771z"/>
  <path class="fil1" d="M4.59039,12.3891 L4.18248,12.3891 L4.3239,8.85352 L1.55066,6.60969 L4.35566,8.06019 L4.41559,6.56156 L2.55018,5.35741 L4.43635,6.04307 L4.48532,4.81871 L3.11618,3.76551 L4.50419,4.34653 L4.59039,2.19166 L4.67657,4.34653 L6.0646,3.76551 L4.69546,4.81871 L4.74443,6.04307 L6.63058,5.35741 L4.76518,6.56156 L4.82512,8.06019 L7.63012,6.60969 L4.85687,8.85352 L4.99828,12.3891 Z"/>
 </g>
</svg>
